<?xml version="1.0" encoding="UTF-8" standalone="no"?>
<!DOCTYPE svg PUBLIC "-//W3C//DTD SVG 1.1//EN"
 "http://www.w3.org/Graphics/SVG/1.1/DTD/svg11.dtd">
<!-- Generated by graphviz version 2.47.3 (20210619.1520)
 -->
<!-- Title: dependencies Pages: 1 -->
<svg width="3547pt" height="247pt"
 viewBox="0.00 0.00 3547.00 246.80" xmlns="http://www.w3.org/2000/svg" xmlns:xlink="http://www.w3.org/1999/xlink">
<g id="graph0" class="graph" transform="scale(1 1) rotate(0) translate(4 242.8)">
<title>dependencies</title>
<polygon fill="white" stroke="transparent" points="-4,4 -4,-242.8 3543,-242.8 3543,4 -4,4"/>
<text text-anchor="middle" x="1769.5" y="-8.2" font-family="sans-serif" font-size="14.00">dependencies</text>
<g id="clust1" class="cluster">
<title>cluster_AppModule</title>
<polygon fill="none" stroke="black" stroke-dasharray="1,5" points="8,-32.8 8,-230.8 3531,-230.8 3531,-32.8 8,-32.8"/>
</g>
<g id="clust24" class="cluster">
<title>cluster_AppModule_imports</title>
<polygon fill="none" stroke="black" points="3379,-40.8 3379,-92.8 3523,-92.8 3523,-40.8 3379,-40.8"/>
</g>
<g id="clust26" class="cluster">
<title>cluster_AppModule_bootstrap</title>
<polygon fill="none" stroke="black" points="1731,-170.8 1731,-222.8 1855,-222.8 1855,-170.8 1731,-170.8"/>
</g>
<g id="clust2" class="cluster">
<title>cluster_AppModule_declarations</title>
<polygon fill="none" stroke="black" points="16,-40.8 16,-92.8 3371,-92.8 3371,-40.8 16,-40.8"/>
</g>
<!-- AddCompanyComponent -->
<g id="node1" class="node">
<title>AddCompanyComponent</title>
<polygon fill="#ffffb3" stroke="black" points="3362.88,-84.8 3203.12,-84.8 3203.12,-48.8 3362.88,-48.8 3362.88,-84.8"/>
<text text-anchor="middle" x="3283" y="-62.6" font-family="Times,serif" font-size="14.00">AddCompanyComponent</text>
</g>
<!-- AppModule -->
<g id="node22" class="node">
<title>AppModule</title>
<polygon fill="#8dd3c7" stroke="black" points="1834.66,-149.8 1831.66,-153.8 1810.66,-153.8 1807.66,-149.8 1751.34,-149.8 1751.34,-113.8 1834.66,-113.8 1834.66,-149.8"/>
<text text-anchor="middle" x="1793" y="-127.6" font-family="Times,serif" font-size="14.00">AppModule</text>
</g>
<!-- AddCompanyComponent&#45;&gt;AppModule -->
<g id="edge1" class="edge">
<title>AddCompanyComponent&#45;&gt;AppModule</title>
<path fill="none" stroke="black" d="M3283,-85.05C3283,-107.82 3283,-143.8 3283,-143.8 3283,-143.8 1844.8,-143.8 1844.8,-143.8"/>
<polygon fill="black" stroke="black" points="1844.8,-140.3 1834.8,-143.8 1844.8,-147.3 1844.8,-140.3"/>
</g>
<!-- AddInformationComponent -->
<g id="node2" class="node">
<title>AddInformationComponent</title>
<polygon fill="#ffffb3" stroke="black" points="3185.31,-84.8 3012.69,-84.8 3012.69,-48.8 3185.31,-48.8 3185.31,-84.8"/>
<text text-anchor="middle" x="3099" y="-62.6" font-family="Times,serif" font-size="14.00">AddInformationComponent</text>
</g>
<!-- AddInformationComponent&#45;&gt;AppModule -->
<g id="edge2" class="edge">
<title>AddInformationComponent&#45;&gt;AppModule</title>
<path fill="none" stroke="black" d="M3099,-85.09C3099,-107.01 3099,-140.8 3099,-140.8 3099,-140.8 1844.97,-140.8 1844.97,-140.8"/>
<polygon fill="black" stroke="black" points="1844.97,-137.3 1834.97,-140.8 1844.97,-144.3 1844.97,-137.3"/>
</g>
<!-- AddProductsComponent -->
<g id="node3" class="node">
<title>AddProductsComponent</title>
<polygon fill="#ffffb3" stroke="black" points="2995.43,-84.8 2840.57,-84.8 2840.57,-48.8 2995.43,-48.8 2995.43,-84.8"/>
<text text-anchor="middle" x="2918" y="-62.6" font-family="Times,serif" font-size="14.00">AddProductsComponent</text>
</g>
<!-- AddProductsComponent&#45;&gt;AppModule -->
<g id="edge3" class="edge">
<title>AddProductsComponent&#45;&gt;AppModule</title>
<path fill="none" stroke="black" d="M2918,-84.83C2918,-105.57 2918,-136.8 2918,-136.8 2918,-136.8 1844.71,-136.8 1844.71,-136.8"/>
<polygon fill="black" stroke="black" points="1844.71,-133.3 1834.71,-136.8 1844.71,-140.3 1844.71,-133.3"/>
</g>
<!-- AgriFeedComponent -->
<g id="node4" class="node">
<title>AgriFeedComponent</title>
<polygon fill="#ffffb3" stroke="black" points="2823.2,-84.8 2688.8,-84.8 2688.8,-48.8 2823.2,-48.8 2823.2,-84.8"/>
<text text-anchor="middle" x="2756" y="-62.6" font-family="Times,serif" font-size="14.00">AgriFeedComponent</text>
</g>
<!-- AgriFeedComponent&#45;&gt;AppModule -->
<g id="edge4" class="edge">
<title>AgriFeedComponent&#45;&gt;AppModule</title>
<path fill="none" stroke="black" d="M2756,-85.11C2756,-104.95 2756,-133.8 2756,-133.8 2756,-133.8 1844.69,-133.8 1844.69,-133.8"/>
<polygon fill="black" stroke="black" points="1844.69,-130.3 1834.69,-133.8 1844.69,-137.3 1844.69,-130.3"/>
</g>
<!-- AppComponent -->
<g id="node5" class="node">
<title>AppComponent</title>
<polygon fill="#ffffb3" stroke="black" points="2670.94,-84.8 2565.06,-84.8 2565.06,-48.8 2670.94,-48.8 2670.94,-84.8"/>
<text text-anchor="middle" x="2618" y="-62.6" font-family="Times,serif" font-size="14.00">AppComponent</text>
</g>
<!-- AppComponent&#45;&gt;AppModule -->
<g id="edge5" class="edge">
<title>AppComponent&#45;&gt;AppModule</title>
<path fill="none" stroke="black" d="M2618,-84.97C2618,-103.89 2618,-130.8 2618,-130.8 2618,-130.8 1844.76,-130.8 1844.76,-130.8"/>
<polygon fill="black" stroke="black" points="1844.76,-127.3 1834.76,-130.8 1844.76,-134.3 1844.76,-127.3"/>
</g>
<!-- CartComponent -->
<g id="node6" class="node">
<title>CartComponent</title>
<polygon fill="#ffffb3" stroke="black" points="2547.94,-84.8 2442.06,-84.8 2442.06,-48.8 2547.94,-48.8 2547.94,-84.8"/>
<text text-anchor="middle" x="2495" y="-62.6" font-family="Times,serif" font-size="14.00">CartComponent</text>
</g>
<!-- CartComponent&#45;&gt;AppModule -->
<g id="edge6" class="edge">
<title>CartComponent&#45;&gt;AppModule</title>
<path fill="none" stroke="black" d="M2495,-85.1C2495,-103.07 2495,-127.8 2495,-127.8 2495,-127.8 1844.81,-127.8 1844.81,-127.8"/>
<polygon fill="black" stroke="black" points="1844.81,-124.3 1834.81,-127.8 1844.81,-131.3 1844.81,-124.3"/>
</g>
<!-- ContentComponent -->
<g id="node7" class="node">
<title>ContentComponent</title>
<polygon fill="#ffffb3" stroke="black" points="2423.67,-84.8 2298.33,-84.8 2298.33,-48.8 2423.67,-48.8 2423.67,-84.8"/>
<text text-anchor="middle" x="2361" y="-62.6" font-family="Times,serif" font-size="14.00">ContentComponent</text>
</g>
<!-- ContentComponent&#45;&gt;AppModule -->
<g id="edge7" class="edge">
<title>ContentComponent&#45;&gt;AppModule</title>
<path fill="none" stroke="black" d="M2361,-84.84C2361,-101.53 2361,-123.8 2361,-123.8 2361,-123.8 1844.77,-123.8 1844.77,-123.8"/>
<polygon fill="black" stroke="black" points="1844.77,-120.3 1834.77,-123.8 1844.77,-127.3 1844.77,-120.3"/>
</g>
<!-- DeleteFarmerComponent -->
<g id="node8" class="node">
<title>DeleteFarmerComponent</title>
<polygon fill="#ffffb3" stroke="black" points="2280.29,-84.8 2121.71,-84.8 2121.71,-48.8 2280.29,-48.8 2280.29,-84.8"/>
<text text-anchor="middle" x="2201" y="-62.6" font-family="Times,serif" font-size="14.00">DeleteFarmerComponent</text>
</g>
<!-- DeleteFarmerComponent&#45;&gt;AppModule -->
<g id="edge8" class="edge">
<title>DeleteFarmerComponent&#45;&gt;AppModule</title>
<path fill="none" stroke="black" d="M2201,-85.08C2201,-100.75 2201,-120.8 2201,-120.8 2201,-120.8 1844.75,-120.8 1844.75,-120.8"/>
<polygon fill="black" stroke="black" points="1844.75,-117.3 1834.75,-120.8 1844.75,-124.3 1844.75,-117.3"/>
</g>
<!-- FooterComponent -->
<g id="node9" class="node">
<title>FooterComponent</title>
<polygon fill="#ffffb3" stroke="black" points="2103.88,-84.8 1986.12,-84.8 1986.12,-48.8 2103.88,-48.8 2103.88,-84.8"/>
<text text-anchor="middle" x="2045" y="-62.6" font-family="Times,serif" font-size="14.00">FooterComponent</text>
</g>
<!-- FooterComponent&#45;&gt;AppModule -->
<g id="edge9" class="edge">
<title>FooterComponent&#45;&gt;AppModule</title>
<path fill="none" stroke="black" d="M2045,-84.92C2045,-99.58 2045,-117.8 2045,-117.8 2045,-117.8 1844.9,-117.8 1844.9,-117.8"/>
<polygon fill="black" stroke="black" points="1844.9,-114.3 1834.9,-117.8 1844.9,-121.3 1844.9,-114.3"/>
</g>
<!-- GetFarmerByAgeComponent -->
<g id="node10" class="node">
<title>GetFarmerByAgeComponent</title>
<polygon fill="#ffffb3" stroke="black" points="1967.63,-84.8 1786.37,-84.8 1786.37,-48.8 1967.63,-48.8 1967.63,-84.8"/>
<text text-anchor="middle" x="1877" y="-62.6" font-family="Times,serif" font-size="14.00">GetFarmerByAgeComponent</text>
</g>
<!-- GetFarmerByAgeComponent&#45;&gt;AppModule -->
<g id="edge10" class="edge">
<title>GetFarmerByAgeComponent&#45;&gt;AppModule</title>
<path fill="none" stroke="black" d="M1810.51,-84.91C1810.51,-84.91 1810.51,-103.79 1810.51,-103.79"/>
<polygon fill="black" stroke="black" points="1807.01,-103.79 1810.51,-113.79 1814.01,-103.79 1807.01,-103.79"/>
</g>
<!-- HomeComponent -->
<g id="node11" class="node">
<title>HomeComponent</title>
<polygon fill="#ffffb3" stroke="black" points="1767.55,-84.8 1652.45,-84.8 1652.45,-48.8 1767.55,-48.8 1767.55,-84.8"/>
<text text-anchor="middle" x="1710" y="-62.6" font-family="Times,serif" font-size="14.00">HomeComponent</text>
</g>
<!-- HomeComponent&#45;&gt;AppModule -->
<g id="edge11" class="edge">
<title>HomeComponent&#45;&gt;AppModule</title>
<path fill="none" stroke="black" d="M1759.47,-84.91C1759.47,-84.91 1759.47,-103.79 1759.47,-103.79"/>
<polygon fill="black" stroke="black" points="1755.97,-103.79 1759.47,-113.79 1762.97,-103.79 1755.97,-103.79"/>
</g>
<!-- LearnComponent -->
<g id="node12" class="node">
<title>LearnComponent</title>
<polygon fill="#ffffb3" stroke="black" points="1633.97,-84.8 1520.03,-84.8 1520.03,-48.8 1633.97,-48.8 1633.97,-84.8"/>
<text text-anchor="middle" x="1577" y="-62.6" font-family="Times,serif" font-size="14.00">LearnComponent</text>
</g>
<!-- LearnComponent&#45;&gt;AppModule -->
<g id="edge12" class="edge">
<title>LearnComponent&#45;&gt;AppModule</title>
<path fill="none" stroke="black" d="M1577,-84.92C1577,-99.58 1577,-117.8 1577,-117.8 1577,-117.8 1741.1,-117.8 1741.1,-117.8"/>
<polygon fill="black" stroke="black" points="1741.1,-121.3 1751.1,-117.8 1741.1,-114.3 1741.1,-121.3"/>
</g>
<!-- LoginComponent -->
<g id="node13" class="node">
<title>LoginComponent</title>
<polygon fill="#ffffb3" stroke="black" points="1502.28,-84.8 1387.72,-84.8 1387.72,-48.8 1502.28,-48.8 1502.28,-84.8"/>
<text text-anchor="middle" x="1445" y="-62.6" font-family="Times,serif" font-size="14.00">LoginComponent</text>
</g>
<!-- LoginComponent&#45;&gt;AppModule -->
<g id="edge13" class="edge">
<title>LoginComponent&#45;&gt;AppModule</title>
<path fill="none" stroke="black" d="M1445,-85.08C1445,-100.75 1445,-120.8 1445,-120.8 1445,-120.8 1741.02,-120.8 1741.02,-120.8"/>
<polygon fill="black" stroke="black" points="1741.02,-124.3 1751.02,-120.8 1741.02,-117.3 1741.02,-124.3"/>
</g>
<!-- MyProfileComponent -->
<g id="node14" class="node">
<title>MyProfileComponent</title>
<polygon fill="#ffffb3" stroke="black" points="1369.38,-84.8 1230.62,-84.8 1230.62,-48.8 1369.38,-48.8 1369.38,-84.8"/>
<text text-anchor="middle" x="1300" y="-62.6" font-family="Times,serif" font-size="14.00">MyProfileComponent</text>
</g>
<!-- MyProfileComponent&#45;&gt;AppModule -->
<g id="edge14" class="edge">
<title>MyProfileComponent&#45;&gt;AppModule</title>
<path fill="none" stroke="black" d="M1300,-84.84C1300,-101.53 1300,-123.8 1300,-123.8 1300,-123.8 1740.97,-123.8 1740.97,-123.8"/>
<polygon fill="black" stroke="black" points="1740.97,-127.3 1750.97,-123.8 1740.97,-120.3 1740.97,-127.3"/>
</g>
<!-- ProductsComponent -->
<g id="node15" class="node">
<title>ProductsComponent</title>
<polygon fill="#ffffb3" stroke="black" points="1212.33,-84.8 1081.67,-84.8 1081.67,-48.8 1212.33,-48.8 1212.33,-84.8"/>
<text text-anchor="middle" x="1147" y="-62.6" font-family="Times,serif" font-size="14.00">ProductsComponent</text>
</g>
<!-- ProductsComponent&#45;&gt;AppModule -->
<g id="edge15" class="edge">
<title>ProductsComponent&#45;&gt;AppModule</title>
<path fill="none" stroke="black" d="M1147,-85.1C1147,-103.07 1147,-127.8 1147,-127.8 1147,-127.8 1741.11,-127.8 1741.11,-127.8"/>
<polygon fill="black" stroke="black" points="1741.11,-131.3 1751.11,-127.8 1741.11,-124.3 1741.11,-131.3"/>
</g>
<!-- RegisterComponent -->
<g id="node16" class="node">
<title>RegisterComponent</title>
<polygon fill="#ffffb3" stroke="black" points="1063.98,-84.8 936.02,-84.8 936.02,-48.8 1063.98,-48.8 1063.98,-84.8"/>
<text text-anchor="middle" x="1000" y="-62.6" font-family="Times,serif" font-size="14.00">RegisterComponent</text>
</g>
<!-- RegisterComponent&#45;&gt;AppModule -->
<g id="edge16" class="edge">
<title>RegisterComponent&#45;&gt;AppModule</title>
<path fill="none" stroke="black" d="M1000,-84.97C1000,-103.89 1000,-130.8 1000,-130.8 1000,-130.8 1741.2,-130.8 1741.2,-130.8"/>
<polygon fill="black" stroke="black" points="1741.2,-134.3 1751.2,-130.8 1741.2,-127.3 1741.2,-134.3"/>
</g>
<!-- UpdateFarmerComponent -->
<g id="node17" class="node">
<title>UpdateFarmerComponent</title>
<polygon fill="#ffffb3" stroke="black" points="918.18,-84.8 755.82,-84.8 755.82,-48.8 918.18,-48.8 918.18,-84.8"/>
<text text-anchor="middle" x="837" y="-62.6" font-family="Times,serif" font-size="14.00">UpdateFarmerComponent</text>
</g>
<!-- UpdateFarmerComponent&#45;&gt;AppModule -->
<g id="edge17" class="edge">
<title>UpdateFarmerComponent&#45;&gt;AppModule</title>
<path fill="none" stroke="black" d="M837,-85.11C837,-104.95 837,-133.8 837,-133.8 837,-133.8 1741.31,-133.8 1741.31,-133.8"/>
<polygon fill="black" stroke="black" points="1741.31,-137.3 1751.31,-133.8 1741.31,-130.3 1741.31,-137.3"/>
</g>
<!-- ViewAllFarmersComponent -->
<g id="node18" class="node">
<title>ViewAllFarmersComponent</title>
<polygon fill="#ffffb3" stroke="black" points="737.91,-84.8 562.09,-84.8 562.09,-48.8 737.91,-48.8 737.91,-84.8"/>
<text text-anchor="middle" x="650" y="-62.6" font-family="Times,serif" font-size="14.00">ViewAllFarmersComponent</text>
</g>
<!-- ViewAllFarmersComponent&#45;&gt;AppModule -->
<g id="edge18" class="edge">
<title>ViewAllFarmersComponent&#45;&gt;AppModule</title>
<path fill="none" stroke="black" d="M650,-84.83C650,-105.57 650,-136.8 650,-136.8 650,-136.8 1741.31,-136.8 1741.31,-136.8"/>
<polygon fill="black" stroke="black" points="1741.31,-140.3 1751.31,-136.8 1741.31,-133.3 1741.31,-140.3"/>
</g>
<!-- ViewAllOrdersComponent -->
<g id="node19" class="node">
<title>ViewAllOrdersComponent</title>
<polygon fill="#ffffb3" stroke="black" points="543.63,-84.8 376.37,-84.8 376.37,-48.8 543.63,-48.8 543.63,-84.8"/>
<text text-anchor="middle" x="460" y="-62.6" font-family="Times,serif" font-size="14.00">ViewAllOrdersComponent</text>
</g>
<!-- ViewAllOrdersComponent&#45;&gt;AppModule -->
<g id="edge19" class="edge">
<title>ViewAllOrdersComponent&#45;&gt;AppModule</title>
<path fill="none" stroke="black" d="M460,-85.09C460,-107.01 460,-140.8 460,-140.8 460,-140.8 1741.28,-140.8 1741.28,-140.8"/>
<polygon fill="black" stroke="black" points="1741.28,-144.3 1751.28,-140.8 1741.28,-137.3 1741.28,-144.3"/>
</g>
<!-- ViewCompanyComponent -->
<g id="node20" class="node">
<title>ViewCompanyComponent</title>
<polygon fill="#ffffb3" stroke="black" points="358.09,-84.8 191.91,-84.8 191.91,-48.8 358.09,-48.8 358.09,-84.8"/>
<text text-anchor="middle" x="275" y="-62.6" font-family="Times,serif" font-size="14.00">ViewCompanyComponent</text>
</g>
<!-- ViewCompanyComponent&#45;&gt;AppModule -->
<g id="edge20" class="edge">
<title>ViewCompanyComponent&#45;&gt;AppModule</title>
<path fill="none" stroke="black" d="M275,-85.05C275,-107.82 275,-143.8 275,-143.8 275,-143.8 1741.21,-143.8 1741.21,-143.8"/>
<polygon fill="black" stroke="black" points="1741.21,-147.3 1751.21,-143.8 1741.21,-140.3 1741.21,-147.3"/>
</g>
<!-- ViewOrdersComponent -->
<g id="node21" class="node">
<title>ViewOrdersComponent</title>
<polygon fill="#ffffb3" stroke="black" points="173.74,-84.8 24.26,-84.8 24.26,-48.8 173.74,-48.8 173.74,-84.8"/>
<text text-anchor="middle" x="99" y="-62.6" font-family="Times,serif" font-size="14.00">ViewOrdersComponent</text>
</g>
<!-- ViewOrdersComponent&#45;&gt;AppModule -->
<g id="edge21" class="edge">
<title>ViewOrdersComponent&#45;&gt;AppModule</title>
<path fill="none" stroke="black" d="M99,-84.95C99,-108.56 99,-146.8 99,-146.8 99,-146.8 1741.13,-146.8 1741.13,-146.8"/>
<polygon fill="black" stroke="black" points="1741.13,-150.3 1751.13,-146.8 1741.13,-143.3 1741.13,-150.3"/>
</g>
<!-- AppComponent  -->
<g id="node24" class="node">
<title>AppComponent </title>
<polygon fill="#80b1d3" stroke="black" points="1847.44,-214.8 1738.56,-214.8 1738.56,-178.8 1847.44,-178.8 1847.44,-214.8"/>
<text text-anchor="middle" x="1793" y="-192.6" font-family="Times,serif" font-size="14.00">AppComponent </text>
</g>
<!-- AppModule&#45;&gt;AppComponent  -->
<g id="edge23" class="edge">
<title>AppModule&#45;&gt;AppComponent </title>
<path fill="none" stroke="black" stroke-dasharray="1,5" d="M1793,-149.91C1793,-149.91 1793,-168.79 1793,-168.79"/>
<polygon fill="black" stroke="black" points="1789.5,-168.79 1793,-178.79 1796.5,-168.79 1789.5,-168.79"/>
</g>
<!-- AppRoutingModule -->
<g id="node23" class="node">
<title>AppRoutingModule</title>
<polygon fill="#8dd3c7" stroke="black" points="3515.27,-84.8 3512.27,-88.8 3491.27,-88.8 3488.27,-84.8 3386.73,-84.8 3386.73,-48.8 3515.27,-48.8 3515.27,-84.8"/>
<text text-anchor="middle" x="3451" y="-62.6" font-family="Times,serif" font-size="14.00">AppRoutingModule</text>
</g>
<!-- AppRoutingModule&#45;&gt;AppModule -->
<g id="edge22" class="edge">
<title>AppRoutingModule&#45;&gt;AppModule</title>
<path fill="none" stroke="black" d="M3451,-84.95C3451,-108.56 3451,-146.8 3451,-146.8 3451,-146.8 1844.81,-146.8 1844.81,-146.8"/>
<polygon fill="black" stroke="black" points="1844.81,-143.3 1834.81,-146.8 1844.81,-150.3 1844.81,-143.3"/>
</g>
</g>
</svg>
