<?xml version="1.0" encoding="UTF-8" standalone="no"?>
<!DOCTYPE svg PUBLIC "-//W3C//DTD SVG 1.1//EN"
 "http://www.w3.org/Graphics/SVG/1.1/DTD/svg11.dtd">
<!-- Generated by graphviz version 2.47.3 (20210619.1520)
 -->
<!-- Title: dependencies Pages: 1 -->
<svg width="3547pt" height="247pt"
 viewBox="0.00 0.00 3547.00 246.80" xmlns="http://www.w3.org/2000/svg" xmlns:xlink="http://www.w3.org/1999/xlink">
<g id="graph0" class="graph" transform="scale(1 1) rotate(0) translate(4 242.8)">
<title>dependencies</title>
<polygon fill="white" stroke="transparent" points="-4,4 -4,-242.8 3543,-242.8 3543,4 -4,4"/>
<text text-anchor="middle" x="1769.5" y="-8.2" font-family="sans-serif" font-size="14.00">dependencies</text>
<g id="clust1" class="cluster">
<title>cluster_AppModule</title>
<polygon fill="none" stroke="black" stroke-dasharray="1,5" points="8,-32.8 8,-230.8 3531,-230.8 3531,-32.8 8,-32.8"/>
</g>
<g id="clust2" class="cluster">
<title>cluster_AppModule_declarations</title>
<polygon fill="none" stroke="black" points="168,-40.8 168,-92.8 3523,-92.8 3523,-40.8 168,-40.8"/>
</g>
<g id="clust24" class="cluster">
<title>cluster_AppModule_imports</title>
<polygon fill="none" stroke="black" points="16,-40.8 16,-92.8 160,-92.8 160,-40.8 16,-40.8"/>
</g>
<g id="clust26" class="cluster">
<title>cluster_AppModule_bootstrap</title>
<polygon fill="none" stroke="black" points="1733,-170.8 1733,-222.8 1857,-222.8 1857,-170.8 1733,-170.8"/>
</g>
<!-- AddCompanyComponent -->
<g id="node1" class="node">
<title>AddCompanyComponent</title>
<polygon fill="#ffffb3" stroke="black" points="3514.88,-84.8 3355.12,-84.8 3355.12,-48.8 3514.88,-48.8 3514.88,-84.8"/>
<text text-anchor="middle" x="3435" y="-62.6" font-family="Times,serif" font-size="14.00">AddCompanyComponent</text>
</g>
<!-- AppModule -->
<g id="node22" class="node">
<title>AppModule</title>
<polygon fill="#8dd3c7" stroke="black" points="1836.66,-149.8 1833.66,-153.8 1812.66,-153.8 1809.66,-149.8 1753.34,-149.8 1753.34,-113.8 1836.66,-113.8 1836.66,-149.8"/>
<text text-anchor="middle" x="1795" y="-127.6" font-family="Times,serif" font-size="14.00">AppModule</text>
</g>
<!-- AddCompanyComponent&#45;&gt;AppModule -->
<g id="edge1" class="edge">
<title>AddCompanyComponent&#45;&gt;AppModule</title>
<path fill="none" stroke="black" d="M3435,-84.95C3435,-108.56 3435,-146.8 3435,-146.8 3435,-146.8 1846.77,-146.8 1846.77,-146.8"/>
<polygon fill="black" stroke="black" points="1846.77,-143.3 1836.77,-146.8 1846.77,-150.3 1846.77,-143.3"/>
</g>
<!-- AddInformationComponent -->
<g id="node2" class="node">
<title>AddInformationComponent</title>
<polygon fill="#ffffb3" stroke="black" points="3337.31,-84.8 3164.69,-84.8 3164.69,-48.8 3337.31,-48.8 3337.31,-84.8"/>
<text text-anchor="middle" x="3251" y="-62.6" font-family="Times,serif" font-size="14.00">AddInformationComponent</text>
</g>
<!-- AddInformationComponent&#45;&gt;AppModule -->
<g id="edge2" class="edge">
<title>AddInformationComponent&#45;&gt;AppModule</title>
<path fill="none" stroke="black" d="M3251,-85.05C3251,-107.82 3251,-143.8 3251,-143.8 3251,-143.8 1847.01,-143.8 1847.01,-143.8"/>
<polygon fill="black" stroke="black" points="1847.01,-140.3 1837.01,-143.8 1847,-147.3 1847.01,-140.3"/>
</g>
<!-- AddProductsComponent -->
<g id="node3" class="node">
<title>AddProductsComponent</title>
<polygon fill="#ffffb3" stroke="black" points="3147.43,-84.8 2992.57,-84.8 2992.57,-48.8 3147.43,-48.8 3147.43,-84.8"/>
<text text-anchor="middle" x="3070" y="-62.6" font-family="Times,serif" font-size="14.00">AddProductsComponent</text>
</g>
<!-- AddProductsComponent&#45;&gt;AppModule -->
<g id="edge3" class="edge">
<title>AddProductsComponent&#45;&gt;AppModule</title>
<path fill="none" stroke="black" d="M3070,-85.09C3070,-107.01 3070,-140.8 3070,-140.8 3070,-140.8 1846.7,-140.8 1846.7,-140.8"/>
<polygon fill="black" stroke="black" points="1846.7,-137.3 1836.7,-140.8 1846.7,-144.3 1846.7,-137.3"/>
</g>
<!-- AgriFeedComponent -->
<g id="node4" class="node">
<title>AgriFeedComponent</title>
<polygon fill="#ffffb3" stroke="black" points="2975.2,-84.8 2840.8,-84.8 2840.8,-48.8 2975.2,-48.8 2975.2,-84.8"/>
<text text-anchor="middle" x="2908" y="-62.6" font-family="Times,serif" font-size="14.00">AgriFeedComponent</text>
</g>
<!-- AgriFeedComponent&#45;&gt;AppModule -->
<g id="edge4" class="edge">
<title>AgriFeedComponent&#45;&gt;AppModule</title>
<path fill="none" stroke="black" d="M2908,-84.83C2908,-105.57 2908,-136.8 2908,-136.8 2908,-136.8 1846.94,-136.8 1846.94,-136.8"/>
<polygon fill="black" stroke="black" points="1846.94,-133.3 1836.94,-136.8 1846.94,-140.3 1846.94,-133.3"/>
</g>
<!-- AppComponent -->
<g id="node5" class="node">
<title>AppComponent</title>
<polygon fill="#ffffb3" stroke="black" points="2822.94,-84.8 2717.06,-84.8 2717.06,-48.8 2822.94,-48.8 2822.94,-84.8"/>
<text text-anchor="middle" x="2770" y="-62.6" font-family="Times,serif" font-size="14.00">AppComponent</text>
</g>
<!-- AppComponent&#45;&gt;AppModule -->
<g id="edge5" class="edge">
<title>AppComponent&#45;&gt;AppModule</title>
<path fill="none" stroke="black" d="M2770,-85.11C2770,-104.95 2770,-133.8 2770,-133.8 2770,-133.8 1846.89,-133.8 1846.89,-133.8"/>
<polygon fill="black" stroke="black" points="1846.89,-130.3 1836.89,-133.8 1846.89,-137.3 1846.89,-130.3"/>
</g>
<!-- CartComponent -->
<g id="node6" class="node">
<title>CartComponent</title>
<polygon fill="#ffffb3" stroke="black" points="2699.94,-84.8 2594.06,-84.8 2594.06,-48.8 2699.94,-48.8 2699.94,-84.8"/>
<text text-anchor="middle" x="2647" y="-62.6" font-family="Times,serif" font-size="14.00">CartComponent</text>
</g>
<!-- CartComponent&#45;&gt;AppModule -->
<g id="edge6" class="edge">
<title>CartComponent&#45;&gt;AppModule</title>
<path fill="none" stroke="black" d="M2647,-84.97C2647,-103.89 2647,-130.8 2647,-130.8 2647,-130.8 1846.67,-130.8 1846.67,-130.8"/>
<polygon fill="black" stroke="black" points="1846.67,-127.3 1836.67,-130.8 1846.67,-134.3 1846.67,-127.3"/>
</g>
<!-- ContentComponent -->
<g id="node7" class="node">
<title>ContentComponent</title>
<polygon fill="#ffffb3" stroke="black" points="2575.67,-84.8 2450.33,-84.8 2450.33,-48.8 2575.67,-48.8 2575.67,-84.8"/>
<text text-anchor="middle" x="2513" y="-62.6" font-family="Times,serif" font-size="14.00">ContentComponent</text>
</g>
<!-- ContentComponent&#45;&gt;AppModule -->
<g id="edge7" class="edge">
<title>ContentComponent&#45;&gt;AppModule</title>
<path fill="none" stroke="black" d="M2513,-85.1C2513,-103.07 2513,-127.8 2513,-127.8 2513,-127.8 1846.71,-127.8 1846.71,-127.8"/>
<polygon fill="black" stroke="black" points="1846.71,-124.3 1836.71,-127.8 1846.71,-131.3 1846.71,-124.3"/>
</g>
<!-- DeleteFarmerComponent -->
<g id="node8" class="node">
<title>DeleteFarmerComponent</title>
<polygon fill="#ffffb3" stroke="black" points="2432.29,-84.8 2273.71,-84.8 2273.71,-48.8 2432.29,-48.8 2432.29,-84.8"/>
<text text-anchor="middle" x="2353" y="-62.6" font-family="Times,serif" font-size="14.00">DeleteFarmerComponent</text>
</g>
<!-- DeleteFarmerComponent&#45;&gt;AppModule -->
<g id="edge8" class="edge">
<title>DeleteFarmerComponent&#45;&gt;AppModule</title>
<path fill="none" stroke="black" d="M2353,-84.84C2353,-101.53 2353,-123.8 2353,-123.8 2353,-123.8 1846.94,-123.8 1846.94,-123.8"/>
<polygon fill="black" stroke="black" points="1846.94,-120.3 1836.94,-123.8 1846.94,-127.3 1846.94,-120.3"/>
</g>
<!-- FooterComponent -->
<g id="node9" class="node">
<title>FooterComponent</title>
<polygon fill="#ffffb3" stroke="black" points="2255.88,-84.8 2138.12,-84.8 2138.12,-48.8 2255.88,-48.8 2255.88,-84.8"/>
<text text-anchor="middle" x="2197" y="-62.6" font-family="Times,serif" font-size="14.00">FooterComponent</text>
</g>
<!-- FooterComponent&#45;&gt;AppModule -->
<g id="edge9" class="edge">
<title>FooterComponent&#45;&gt;AppModule</title>
<path fill="none" stroke="black" d="M2197,-85.08C2197,-100.75 2197,-120.8 2197,-120.8 2197,-120.8 1846.88,-120.8 1846.88,-120.8"/>
<polygon fill="black" stroke="black" points="1846.88,-117.3 1836.88,-120.8 1846.88,-124.3 1846.88,-117.3"/>
</g>
<!-- GetFarmerByAgeComponent -->
<g id="node10" class="node">
<title>GetFarmerByAgeComponent</title>
<polygon fill="#ffffb3" stroke="black" points="2119.63,-84.8 1938.37,-84.8 1938.37,-48.8 2119.63,-48.8 2119.63,-84.8"/>
<text text-anchor="middle" x="2029" y="-62.6" font-family="Times,serif" font-size="14.00">GetFarmerByAgeComponent</text>
</g>
<!-- GetFarmerByAgeComponent&#45;&gt;AppModule -->
<g id="edge10" class="edge">
<title>GetFarmerByAgeComponent&#45;&gt;AppModule</title>
<path fill="none" stroke="black" d="M2029,-84.92C2029,-99.58 2029,-117.8 2029,-117.8 2029,-117.8 1846.83,-117.8 1846.83,-117.8"/>
<polygon fill="black" stroke="black" points="1846.83,-114.3 1836.83,-117.8 1846.83,-121.3 1846.83,-114.3"/>
</g>
<!-- HomeComponent -->
<g id="node11" class="node">
<title>HomeComponent</title>
<polygon fill="#ffffb3" stroke="black" points="1919.55,-84.8 1804.45,-84.8 1804.45,-48.8 1919.55,-48.8 1919.55,-84.8"/>
<text text-anchor="middle" x="1862" y="-62.6" font-family="Times,serif" font-size="14.00">HomeComponent</text>
</g>
<!-- HomeComponent&#45;&gt;AppModule -->
<g id="edge11" class="edge">
<title>HomeComponent&#45;&gt;AppModule</title>
<path fill="none" stroke="black" d="M1820.53,-84.91C1820.53,-84.91 1820.53,-103.79 1820.53,-103.79"/>
<polygon fill="black" stroke="black" points="1817.03,-103.79 1820.53,-113.79 1824.03,-103.79 1817.03,-103.79"/>
</g>
<!-- LearnComponent -->
<g id="node12" class="node">
<title>LearnComponent</title>
<polygon fill="#ffffb3" stroke="black" points="1785.97,-84.8 1672.03,-84.8 1672.03,-48.8 1785.97,-48.8 1785.97,-84.8"/>
<text text-anchor="middle" x="1729" y="-62.6" font-family="Times,serif" font-size="14.00">LearnComponent</text>
</g>
<!-- LearnComponent&#45;&gt;AppModule -->
<g id="edge12" class="edge">
<title>LearnComponent&#45;&gt;AppModule</title>
<path fill="none" stroke="black" d="M1769.58,-84.91C1769.58,-84.91 1769.58,-103.79 1769.58,-103.79"/>
<polygon fill="black" stroke="black" points="1766.08,-103.79 1769.58,-113.79 1773.08,-103.79 1766.08,-103.79"/>
</g>
<!-- LoginComponent -->
<g id="node13" class="node">
<title>LoginComponent</title>
<polygon fill="#ffffb3" stroke="black" points="1654.28,-84.8 1539.72,-84.8 1539.72,-48.8 1654.28,-48.8 1654.28,-84.8"/>
<text text-anchor="middle" x="1597" y="-62.6" font-family="Times,serif" font-size="14.00">LoginComponent</text>
</g>
<!-- LoginComponent&#45;&gt;AppModule -->
<g id="edge13" class="edge">
<title>LoginComponent&#45;&gt;AppModule</title>
<path fill="none" stroke="black" d="M1597,-84.92C1597,-99.58 1597,-117.8 1597,-117.8 1597,-117.8 1743.01,-117.8 1743.01,-117.8"/>
<polygon fill="black" stroke="black" points="1743.01,-121.3 1753.01,-117.8 1743.01,-114.3 1743.01,-121.3"/>
</g>
<!-- MyProfileComponent -->
<g id="node14" class="node">
<title>MyProfileComponent</title>
<polygon fill="#ffffb3" stroke="black" points="1521.38,-84.8 1382.62,-84.8 1382.62,-48.8 1521.38,-48.8 1521.38,-84.8"/>
<text text-anchor="middle" x="1452" y="-62.6" font-family="Times,serif" font-size="14.00">MyProfileComponent</text>
</g>
<!-- MyProfileComponent&#45;&gt;AppModule -->
<g id="edge14" class="edge">
<title>MyProfileComponent&#45;&gt;AppModule</title>
<path fill="none" stroke="black" d="M1452,-85.08C1452,-100.75 1452,-120.8 1452,-120.8 1452,-120.8 1743.28,-120.8 1743.28,-120.8"/>
<polygon fill="black" stroke="black" points="1743.28,-124.3 1753.28,-120.8 1743.28,-117.3 1743.28,-124.3"/>
</g>
<!-- ProductsComponent -->
<g id="node15" class="node">
<title>ProductsComponent</title>
<polygon fill="#ffffb3" stroke="black" points="1364.33,-84.8 1233.67,-84.8 1233.67,-48.8 1364.33,-48.8 1364.33,-84.8"/>
<text text-anchor="middle" x="1299" y="-62.6" font-family="Times,serif" font-size="14.00">ProductsComponent</text>
</g>
<!-- ProductsComponent&#45;&gt;AppModule -->
<g id="edge15" class="edge">
<title>ProductsComponent&#45;&gt;AppModule</title>
<path fill="none" stroke="black" d="M1299,-84.84C1299,-101.53 1299,-123.8 1299,-123.8 1299,-123.8 1743.14,-123.8 1743.14,-123.8"/>
<polygon fill="black" stroke="black" points="1743.14,-127.3 1753.14,-123.8 1743.14,-120.3 1743.14,-127.3"/>
</g>
<!-- RegisterComponent -->
<g id="node16" class="node">
<title>RegisterComponent</title>
<polygon fill="#ffffb3" stroke="black" points="1215.98,-84.8 1088.02,-84.8 1088.02,-48.8 1215.98,-48.8 1215.98,-84.8"/>
<text text-anchor="middle" x="1152" y="-62.6" font-family="Times,serif" font-size="14.00">RegisterComponent</text>
</g>
<!-- RegisterComponent&#45;&gt;AppModule -->
<g id="edge16" class="edge">
<title>RegisterComponent&#45;&gt;AppModule</title>
<path fill="none" stroke="black" d="M1152,-85.1C1152,-103.07 1152,-127.8 1152,-127.8 1152,-127.8 1743.31,-127.8 1743.31,-127.8"/>
<polygon fill="black" stroke="black" points="1743.31,-131.3 1753.31,-127.8 1743.31,-124.3 1743.31,-131.3"/>
</g>
<!-- UpdateFarmerComponent -->
<g id="node17" class="node">
<title>UpdateFarmerComponent</title>
<polygon fill="#ffffb3" stroke="black" points="1070.18,-84.8 907.82,-84.8 907.82,-48.8 1070.18,-48.8 1070.18,-84.8"/>
<text text-anchor="middle" x="989" y="-62.6" font-family="Times,serif" font-size="14.00">UpdateFarmerComponent</text>
</g>
<!-- UpdateFarmerComponent&#45;&gt;AppModule -->
<g id="edge17" class="edge">
<title>UpdateFarmerComponent&#45;&gt;AppModule</title>
<path fill="none" stroke="black" d="M989,-84.97C989,-103.89 989,-130.8 989,-130.8 989,-130.8 1743.08,-130.8 1743.08,-130.8"/>
<polygon fill="black" stroke="black" points="1743.08,-134.3 1753.08,-130.8 1743.08,-127.3 1743.08,-134.3"/>
</g>
<!-- ViewAllFarmersComponent -->
<g id="node18" class="node">
<title>ViewAllFarmersComponent</title>
<polygon fill="#ffffb3" stroke="black" points="889.91,-84.8 714.09,-84.8 714.09,-48.8 889.91,-48.8 889.91,-84.8"/>
<text text-anchor="middle" x="802" y="-62.6" font-family="Times,serif" font-size="14.00">ViewAllFarmersComponent</text>
</g>
<!-- ViewAllFarmersComponent&#45;&gt;AppModule -->
<g id="edge18" class="edge">
<title>ViewAllFarmersComponent&#45;&gt;AppModule</title>
<path fill="none" stroke="black" d="M802,-85.11C802,-104.95 802,-133.8 802,-133.8 802,-133.8 1743.28,-133.8 1743.28,-133.8"/>
<polygon fill="black" stroke="black" points="1743.28,-137.3 1753.28,-133.8 1743.28,-130.3 1743.28,-137.3"/>
</g>
<!-- ViewAllOrdersComponent -->
<g id="node19" class="node">
<title>ViewAllOrdersComponent</title>
<polygon fill="#ffffb3" stroke="black" points="695.63,-84.8 528.37,-84.8 528.37,-48.8 695.63,-48.8 695.63,-84.8"/>
<text text-anchor="middle" x="612" y="-62.6" font-family="Times,serif" font-size="14.00">ViewAllOrdersComponent</text>
</g>
<!-- ViewAllOrdersComponent&#45;&gt;AppModule -->
<g id="edge19" class="edge">
<title>ViewAllOrdersComponent&#45;&gt;AppModule</title>
<path fill="none" stroke="black" d="M612,-84.83C612,-105.57 612,-136.8 612,-136.8 612,-136.8 1743.24,-136.8 1743.24,-136.8"/>
<polygon fill="black" stroke="black" points="1743.24,-140.3 1753.24,-136.8 1743.24,-133.3 1743.24,-140.3"/>
</g>
<!-- ViewCompanyComponent -->
<g id="node20" class="node">
<title>ViewCompanyComponent</title>
<polygon fill="#ffffb3" stroke="black" points="510.09,-84.8 343.91,-84.8 343.91,-48.8 510.09,-48.8 510.09,-84.8"/>
<text text-anchor="middle" x="427" y="-62.6" font-family="Times,serif" font-size="14.00">ViewCompanyComponent</text>
</g>
<!-- ViewCompanyComponent&#45;&gt;AppModule -->
<g id="edge20" class="edge">
<title>ViewCompanyComponent&#45;&gt;AppModule</title>
<path fill="none" stroke="black" d="M427,-85.09C427,-107.01 427,-140.8 427,-140.8 427,-140.8 1743.31,-140.8 1743.31,-140.8"/>
<polygon fill="black" stroke="black" points="1743.31,-144.3 1753.31,-140.8 1743.31,-137.3 1743.31,-144.3"/>
</g>
<!-- ViewOrdersComponent -->
<g id="node21" class="node">
<title>ViewOrdersComponent</title>
<polygon fill="#ffffb3" stroke="black" points="325.74,-84.8 176.26,-84.8 176.26,-48.8 325.74,-48.8 325.74,-84.8"/>
<text text-anchor="middle" x="251" y="-62.6" font-family="Times,serif" font-size="14.00">ViewOrdersComponent</text>
</g>
<!-- ViewOrdersComponent&#45;&gt;AppModule -->
<g id="edge21" class="edge">
<title>ViewOrdersComponent&#45;&gt;AppModule</title>
<path fill="none" stroke="black" d="M251,-85.05C251,-107.82 251,-143.8 251,-143.8 251,-143.8 1743.3,-143.8 1743.3,-143.8"/>
<polygon fill="black" stroke="black" points="1743.3,-147.3 1753.3,-143.8 1743.3,-140.3 1743.3,-147.3"/>
</g>
<!-- AppComponent  -->
<g id="node24" class="node">
<title>AppComponent </title>
<polygon fill="#80b1d3" stroke="black" points="1849.44,-214.8 1740.56,-214.8 1740.56,-178.8 1849.44,-178.8 1849.44,-214.8"/>
<text text-anchor="middle" x="1795" y="-192.6" font-family="Times,serif" font-size="14.00">AppComponent </text>
</g>
<!-- AppModule&#45;&gt;AppComponent  -->
<g id="edge23" class="edge">
<title>AppModule&#45;&gt;AppComponent </title>
<path fill="none" stroke="black" stroke-dasharray="1,5" d="M1795,-149.91C1795,-149.91 1795,-168.79 1795,-168.79"/>
<polygon fill="black" stroke="black" points="1791.5,-168.79 1795,-178.79 1798.5,-168.79 1791.5,-168.79"/>
</g>
<!-- AppRoutingModule -->
<g id="node23" class="node">
<title>AppRoutingModule</title>
<polygon fill="#8dd3c7" stroke="black" points="152.27,-84.8 149.27,-88.8 128.27,-88.8 125.27,-84.8 23.73,-84.8 23.73,-48.8 152.27,-48.8 152.27,-84.8"/>
<text text-anchor="middle" x="88" y="-62.6" font-family="Times,serif" font-size="14.00">AppRoutingModule</text>
</g>
<!-- AppRoutingModule&#45;&gt;AppModule -->
<g id="edge22" class="edge">
<title>AppRoutingModule&#45;&gt;AppModule</title>
<path fill="none" stroke="black" d="M88,-84.95C88,-108.56 88,-146.8 88,-146.8 88,-146.8 1743.23,-146.8 1743.23,-146.8"/>
<polygon fill="black" stroke="black" points="1743.23,-150.3 1753.23,-146.8 1743.23,-143.3 1743.23,-150.3"/>
</g>
</g>
</svg>
